<?xml version="1.0" encoding="utf-8"?>
<!-- Generator: Adobe Illustrator 22.1.0, SVG Export Plug-In . SVG Version: 6.00 Build 0)  -->
<svg version="1.1" id="Layer_1" xmlns="http://www.w3.org/2000/svg" xmlns:xlink="http://www.w3.org/1999/xlink" x="0px" y="0px"
	 viewBox="0 0 120 35" style="enable-background:new 0 0 120 35;" xml:space="preserve">
<style type="text/css">
	.st0{fill:#A782E9;}
	.st1{fill:#FFFFFF;}
</style>
<g>
	<path class="st0" d="M102.2,2.2c-8.5,0-15.3,6.9-15.3,15.3c0,8.5,6.9,15.3,15.3,15.3s15.3-6.9,15.3-15.3
		C117.5,9,110.7,2.2,102.2,2.2z M89,16.7l2-6.2c0.3-1.1,1.7-1.5,2.6-0.8l3.6,3.1c1,0.8,1.4,2.2,1,3.4l0,0c-0.4,1.3-1.5,2.1-2.8,2.2
		l-4.8,0.3C89.5,18.9,88.7,17.8,89,16.7z M101,24.2l-1.1,4.7c-0.3,1.1-1.6,1.6-2.5,0.9L92.1,26c-0.9-0.7-0.9-2.1,0.1-2.7l4.1-2.5
		c1.1-0.7,2.5-0.6,3.6,0.1l0,0C100.8,21.6,101.3,23,101,24.2z M102.2,13.4c-1.3,0-2.4-0.8-2.9-2l-1.8-4.5c-0.4-1,0.3-2.2,1.5-2.2
		h6.5c1.1,0,2,1.2,1.5,2.2l-1.8,4.5C104.6,12.6,103.5,13.4,102.2,13.4L102.2,13.4z M112.4,26l-5.3,3.9c-0.9,0.7-2.2,0.2-2.5-0.9
		l-1.1-4.7c-0.3-1.3,0.2-2.6,1.2-3.4l0,0c1.1-0.8,2.5-0.8,3.6-0.1l4.1,2.5C113.3,23.9,113.3,25.3,112.4,26z M113.8,18.8l-4.8-0.4
		c-1.3-0.1-2.4-1-2.8-2.2l0,0c-0.4-1.3,0-2.6,1-3.4l3.6-3.1c0.9-0.8,2.2-0.3,2.6,0.8l2,6.2C115.8,17.8,114.9,18.9,113.8,18.8z"/>
	<g>
		<g>
			<g>
				<g>
					<path class="st0" d="M106.2,7.7c-1.1-0.2-2-0.4-3.1-0.5c-1.1-0.1-2.2,0-3.4,0.1c-0.6,0.1-1.1,0.2-1.6,0.3
						c2-1.1,4.3-1.3,6.4-0.6C105.2,7.2,105.7,7.4,106.2,7.7z"/>
				</g>
			</g>
			<g>
				<g>
					<path class="st0" d="M105.8,8.5c-0.9-0.1-1.8-0.3-2.8-0.4c-1.1-0.1-2.1,0-3.2,0.1c-0.5,0.1-0.9,0.1-1.4,0.3
						c1.8-1,4-1.2,5.9-0.6C104.9,8.1,105.4,8.3,105.8,8.5z"/>
				</g>
			</g>
			<g>
				<g>
					<path class="st0" d="M105.5,9.4c-0.8-0.1-1.7-0.3-2.5-0.4c-0.9-0.1-1.8,0-2.8,0.1c-0.4,0.1-0.8,0.1-1.3,0.2
						c1.6-0.9,3.6-1.1,5.3-0.5C104.7,9,105.1,9.2,105.5,9.4z"/>
				</g>
			</g>
			<g>
				<g>
					<path class="st0" d="M105.1,10.3c-0.7-0.1-1.5-0.3-2.2-0.3c-0.8-0.1-1.7,0-2.5,0.1c-0.3,0.1-0.8,0.1-1.1,0.2
						c1.4-0.8,3.2-0.9,4.8-0.4C104.4,9.9,104.8,10.1,105.1,10.3z"/>
				</g>
			</g>
			<g>
				<g>
					<path class="st0" d="M104.8,11.1c-0.7-0.1-1.3-0.2-2-0.3c-0.8-0.1-1.5,0-2.2,0.1c-0.4,0.1-0.6,0.1-1,0.1
						c1.3-0.7,2.8-0.8,4.2-0.4C104.2,10.8,104.5,10.9,104.8,11.1z"/>
				</g>
			</g>
			<g>
				<g>
					<path class="st0" d="M104.4,12c-0.6-0.1-1.1-0.2-1.7-0.2c-0.6-0.1-1.3,0-2,0.1c-0.3,0.1-0.6,0.1-0.8,0.1
						c1.1-0.6,2.4-0.7,3.6-0.4C103.9,11.7,104.2,11.8,104.4,12z"/>
				</g>
			</g>
		</g>
		<g>
			<g>
				<g>
					<path class="st0" d="M94.1,10.6c-0.5,0.9-1,1.8-1.4,2.8c-0.4,1.1-0.7,2.1-0.9,3.2c-0.1,0.6-0.1,1-0.2,1.6
						c-0.4-2.2,0.1-4.6,1.4-6.4C93.3,11.5,93.7,11.1,94.1,10.6z"/>
				</g>
			</g>
			<g>
				<g>
					<path class="st0" d="M94.8,11.3c-0.4,0.8-0.9,1.6-1.3,2.5c-0.3,1-0.6,2-0.8,3c-0.1,0.5-0.1,1-0.2,1.4c-0.4-2,0.1-4.1,1.3-5.8
						C94.1,12,94.4,11.6,94.8,11.3z"/>
				</g>
			</g>
			<g>
				<g>
					<path class="st0" d="M95.5,11.8c-0.4,0.8-0.8,1.5-1.1,2.3c-0.3,0.8-0.6,1.8-0.8,2.7c-0.1,0.4-0.1,0.9-0.2,1.3
						c-0.3-1.8,0.1-3.7,1.1-5.3C94.9,12.5,95.2,12.2,95.5,11.8z"/>
				</g>
			</g>
			<g>
				<g>
					<path class="st0" d="M96.3,12.5c-0.4,0.6-0.7,1.3-1,2c-0.3,0.8-0.6,1.6-0.7,2.4c-0.1,0.4-0.1,0.8-0.1,1.2
						c-0.3-1.6,0.1-3.4,1-4.7C95.7,13.1,96,12.7,96.3,12.5z"/>
				</g>
			</g>
			<g>
				<g>
					<path class="st0" d="M96.9,13.1c-0.3,0.6-0.6,1.2-0.8,1.8c-0.3,0.7-0.5,1.4-0.6,2.2c-0.1,0.4-0.1,0.6-0.1,1
						c-0.3-1.4,0.1-2.9,0.9-4.1C96.5,13.6,96.7,13.3,96.9,13.1z"/>
				</g>
			</g>
			<g>
				<g>
					<path class="st0" d="M97.6,13.7c-0.3,0.5-0.6,1-0.8,1.5c-0.2,0.6-0.4,1.3-0.5,1.9c-0.1,0.3-0.1,0.6-0.1,0.8
						c-0.2-1.2,0.1-2.5,0.8-3.6C97.2,14.1,97.4,13.9,97.6,13.7z"/>
				</g>
			</g>
		</g>
		<g>
			<g>
				<g>
					<path class="st0" d="M93.2,23.1c0.7,0.8,1.4,1.5,2.2,2.2c0.8,0.7,1.8,1.3,2.8,1.8c0.5,0.3,1,0.5,1.5,0.7
						c-2.2-0.3-4.2-1.5-5.6-3.3C93.7,24.1,93.4,23.6,93.2,23.1z"/>
				</g>
			</g>
			<g>
				<g>
					<path class="st0" d="M94,22.6c0.6,0.7,1.3,1.3,2,2c0.8,0.6,1.7,1.3,2.6,1.8c0.4,0.2,0.8,0.4,1.3,0.6c-2-0.2-3.9-1.4-5.1-3
						C94.4,23.5,94.2,23.1,94,22.6z"/>
				</g>
			</g>
			<g>
				<g>
					<path class="st0" d="M94.8,22.1c0.6,0.6,1.2,1.3,1.8,1.7c0.7,0.6,1.5,1.1,2.3,1.5c0.4,0.2,0.8,0.4,1.2,0.6
						c-1.8-0.2-3.5-1.3-4.6-2.7C95.2,22.9,95,22.5,94.8,22.1z"/>
				</g>
			</g>
			<g>
				<g>
					<path class="st0" d="M95.5,21.6c0.5,0.6,1.1,1.1,1.6,1.5c0.6,0.6,1.3,1,2.1,1.4c0.3,0.2,0.7,0.4,1,0.5
						c-1.6-0.2-3.2-1.2-4.1-2.4C96,22.3,95.8,22,95.5,21.6z"/>
				</g>
			</g>
			<g>
				<g>
					<path class="st0" d="M96.4,21.1c0.5,0.5,0.9,1,1.5,1.4c0.6,0.5,1.2,0.8,1.8,1.2c0.3,0.1,0.6,0.3,0.9,0.4
						c-1.4-0.1-2.7-1-3.6-2.1C96.7,21.8,96.5,21.5,96.4,21.1z"/>
				</g>
			</g>
			<g>
				<g>
					<path class="st0" d="M97.2,20.6c0.4,0.4,0.8,0.8,1.3,1.2c0.5,0.4,1.1,0.8,1.6,1.1c0.3,0.1,0.5,0.3,0.8,0.4
						c-1.2-0.1-2.4-0.9-3.2-1.8C97.4,21.2,97.3,20.9,97.2,20.6z"/>
				</g>
			</g>
		</g>
		<g>
			<g>
				<g>
					<path class="st0" d="M104.8,27.8c0.9-0.4,1.9-0.9,2.7-1.5c0.9-0.6,1.8-1.3,2.6-2.1c0.4-0.3,0.8-0.8,1.1-1.2
						c-0.9,2-2.8,3.6-4.8,4.3C105.8,27.6,105.3,27.7,104.8,27.8z"/>
				</g>
			</g>
			<g>
				<g>
					<path class="st0" d="M104.5,26.9c0.8-0.4,1.7-0.8,2.4-1.3c0.9-0.6,1.7-1.2,2.4-2c0.4-0.3,0.7-0.7,1-1c-0.8,1.8-2.5,3.3-4.4,3.9
						C105.6,26.7,105.1,26.9,104.5,26.9z"/>
				</g>
			</g>
			<g>
				<g>
					<path class="st0" d="M104.3,26c0.8-0.4,1.5-0.7,2.2-1.2c0.8-0.5,1.5-1,2.2-1.8c0.4-0.3,0.6-0.6,0.9-1c-0.8,1.7-2.3,2.9-4.1,3.6
						C105.2,25.8,104.8,26,104.3,26z"/>
				</g>
			</g>
			<g>
				<g>
					<path class="st0" d="M104.1,25.1c0.7-0.3,1.3-0.6,2-1c0.7-0.5,1.4-1,2-1.6c0.3-0.3,0.6-0.6,0.8-0.8c-0.7,1.5-2.1,2.7-3.6,3.1
						C104.9,24.9,104.5,25.1,104.1,25.1z"/>
				</g>
			</g>
			<g>
				<g>
					<path class="st0" d="M103.9,24.2c0.6-0.3,1.2-0.6,1.8-1c0.6-0.4,1.2-0.8,1.8-1.4c0.2-0.2,0.5-0.5,0.7-0.7
						c-0.6,1.3-1.8,2.3-3.2,2.8C104.6,24.1,104.2,24.1,103.9,24.2z"/>
				</g>
			</g>
			<g>
				<g>
					<path class="st0" d="M103.7,23.3c0.5-0.2,1.1-0.5,1.5-0.8c0.6-0.4,1.1-0.8,1.5-1.2c0.2-0.2,0.4-0.4,0.6-0.6
						c-0.6,1.1-1.5,2-2.7,2.4C104.3,23.2,103.9,23.2,103.7,23.3z"/>
				</g>
			</g>
		</g>
		<g>
			<g>
				<g>
					<path class="st0" d="M112.8,18.3c-0.1-1-0.3-2-0.5-3.1c-0.3-1.1-0.7-2.1-1.2-3.1c-0.2-0.5-0.5-1-0.8-1.4
						c1.6,1.5,2.5,3.8,2.6,5.9C113,17.1,112.9,17.7,112.8,18.3z"/>
				</g>
			</g>
			<g>
				<g>
					<path class="st0" d="M111.9,18.2c-0.1-0.9-0.3-1.8-0.5-2.7c-0.3-1-0.6-2-1.1-2.9c-0.2-0.4-0.4-0.8-0.7-1.3
						c1.5,1.3,2.3,3.4,2.4,5.5C112,17.2,112,17.7,111.9,18.2z"/>
				</g>
			</g>
			<g>
				<g>
					<path class="st0" d="M110.9,18.1c-0.1-0.8-0.2-1.7-0.4-2.5c-0.2-0.9-0.6-1.8-1-2.6c-0.2-0.4-0.4-0.8-0.6-1.2
						c1.3,1.3,2.1,3.1,2.2,4.9C111.1,17.2,111,17.7,110.9,18.1z"/>
				</g>
			</g>
			<g>
				<g>
					<path class="st0" d="M110,18.1c-0.1-0.8-0.2-1.5-0.3-2.2c-0.2-0.8-0.5-1.6-0.9-2.4c-0.1-0.4-0.3-0.7-0.6-1.1
						c1.2,1.1,1.8,2.8,1.9,4.4C110.1,17.3,110.1,17.6,110,18.1z"/>
				</g>
			</g>
			<g>
				<g>
					<path class="st0" d="M109.1,18c-0.1-0.7-0.2-1.3-0.3-2c-0.2-0.7-0.5-1.4-0.8-2.1c-0.1-0.3-0.3-0.6-0.5-0.8c1,1,1.7,2.4,1.7,3.8
						C109.2,17.3,109.2,17.6,109.1,18z"/>
				</g>
			</g>
			<g>
				<g>
					<path class="st0" d="M108.1,17.9c-0.1-0.6-0.1-1.1-0.3-1.7c-0.1-0.6-0.4-1.3-0.7-1.8c-0.1-0.3-0.3-0.5-0.4-0.8
						c0.9,0.8,1.4,2.1,1.5,3.4C108.2,17.3,108.2,17.6,108.1,17.9z"/>
				</g>
			</g>
		</g>
	</g>
	<g>
		<path class="st0" d="M104.6,15.5c0.2-0.4,0.1-0.8-0.1-1.1c-0.4-0.2-0.8-0.1-1.1,0.1c-0.2,0.4-0.1,0.8,0.1,1.1
			C103.9,16,104.3,15.9,104.6,15.5z"/>
		<path class="st0" d="M101.1,14.7c-0.3-0.3-0.7-0.4-1.1-0.1s-0.4,0.7-0.1,1.1s0.7,0.4,1.1,0.1C101.2,15.5,101.3,15.1,101.1,14.7z"
			/>
		<path class="st0" d="M99.2,17.7c-0.4,0.1-0.6,0.6-0.5,1c0.1,0.4,0.6,0.6,1,0.5c0.4-0.1,0.6-0.6,0.5-1
			C100,17.8,99.5,17.6,99.2,17.7z"/>
		<path class="st0" d="M102.2,19.7c-0.4,0-0.8,0.3-0.8,0.8c0,0.4,0.3,0.8,0.8,0.8s0.8-0.3,0.8-0.8C103,20.1,102.6,19.7,102.2,19.7z"
			/>
		<path class="st0" d="M105.3,17.7c-0.4-0.1-0.8,0.1-1,0.5c-0.1,0.4,0.1,0.8,0.5,1s0.8-0.1,1-0.5C105.9,18.3,105.7,17.9,105.3,17.7z
			"/>
		<path class="st0" d="M102.2,16.3c-0.6,0-1.2,0.6-1.2,1.2c0,0.6,0.6,1.2,1.2,1.2s1.2-0.6,1.2-1.2C103.4,16.9,102.9,16.3,102.2,16.3
			z"/>
	</g>
	<g>
		<path class="st0" d="M108.4,6.3c0.1-0.6-0.1-1.2-0.6-1.7c-0.5-0.5-1.2-0.8-1.8-0.6c0.3,0.1,0.6,0.2,0.8,0.4
			c0.3,0.2,0.5,0.5,0.7,0.8c0.3,0.5,0.3,1.1,0.2,1.6c-0.1,0.2-0.1,0.4-0.2,0.6c-0.1,0.3-0.2,0.6-0.3,0.8c-0.2,0.6-0.5,1.1-0.7,1.7
			c-0.2,0.5-0.4,1-0.6,1.5c-0.2,0.4-0.5,0.8-0.8,1.2c0.3-0.2,0.6-0.4,0.8-0.7c0.3-0.4,0.4-0.8,0.6-1.1c0.3-0.7,0.7-1.5,1.1-2.2
			c0.2-0.4,0.3-0.8,0.6-1.2C108.3,7.1,108.4,6.7,108.4,6.3z M107.6,5.2L107.6,5.2C107.6,5.3,107.6,5.2,107.6,5.2z"/>
		<path class="st0" d="M97.2,11.3c-0.6-0.6-1.2-1.1-1.8-1.7c-0.3-0.3-0.6-0.6-0.9-0.9c-0.3-0.3-0.6-0.5-0.9-0.6
			c-0.6-0.2-1.3-0.2-1.8,0.1c-0.6,0.3-1.1,0.8-1.1,1.5c0.2-0.3,0.4-0.5,0.6-0.7c0.3-0.2,0.6-0.4,1-0.4c0.6-0.1,1.1-0.1,1.5,0.3
			c0.1,0.1,0.3,0.2,0.4,0.4c0.2,0.2,0.5,0.4,0.7,0.6c0.4,0.4,0.9,0.8,1.3,1.2c0.4,0.3,0.9,0.7,1.3,1.1c0.3,0.3,0.6,0.7,0.9,1.1
			c-0.1-0.4-0.2-0.6-0.4-1C97.8,12,97.4,11.6,97.2,11.3z M92.2,8.6L92.2,8.6L92.2,8.6z"/>
		<path class="st0" d="M96,19.9c-0.4,0.1-0.8,0.4-1.2,0.6c-0.8,0.4-1.5,0.8-2.2,1.2c-0.3,0.2-0.8,0.4-1.1,0.6s-0.6,0.4-0.8,0.7
			c-0.4,0.5-0.6,1.1-0.5,1.7c0.1,0.7,0.5,1.3,1.1,1.6c-0.2-0.3-0.3-0.6-0.4-0.8c-0.1-0.4-0.1-0.7-0.1-1c0.1-0.5,0.3-1.1,0.7-1.4
			c0.1-0.1,0.3-0.2,0.5-0.3c0.3-0.1,0.5-0.3,0.8-0.5c0.5-0.3,1.1-0.6,1.5-0.9c0.5-0.3,1-0.6,1.5-0.9c0.4-0.3,0.9-0.4,1.4-0.5
			C96.7,19.7,96.3,19.8,96,19.9z M90.6,24.3L90.6,24.3L90.6,24.3z"/>
		<path class="st0" d="M105.1,30.6c-0.5-0.2-0.9-0.6-1.1-1.1c-0.1-0.2-0.1-0.4-0.1-0.6c-0.1-0.3-0.1-0.6-0.2-0.9
			c-0.1-0.6-0.3-1.2-0.4-1.8s-0.3-1.1-0.4-1.7c-0.1-0.5-0.1-1-0.1-1.5c-0.1,0.4-0.2,0.7-0.2,1.1c0,0.4,0.1,0.9,0.1,1.3
			c0.1,0.8,0.3,1.6,0.4,2.5c0.1,0.4,0.1,0.8,0.2,1.3c0.1,0.3,0.2,0.7,0.4,1c0.3,0.5,0.8,0.8,1.4,1c0.7,0.1,1.4-0.1,1.9-0.6
			c-0.3,0.1-0.6,0.1-0.9,0.1C105.8,30.8,105.4,30.7,105.1,30.6z M105.1,30.6L105.1,30.6L105.1,30.6z"/>
		<path class="st0" d="M116.2,16.9c0,0.4-0.1,0.6-0.1,0.9c-0.1,0.4-0.3,0.6-0.6,0.9c-0.4,0.4-0.8,0.7-1.4,0.7c-0.2,0-0.4,0-0.6,0
			c-0.3,0-0.6-0.1-0.9-0.1c-0.6-0.1-1.2-0.1-1.8-0.1c-0.6-0.1-1.1-0.1-1.8-0.1c-0.5-0.1-0.9-0.2-1.4-0.4c0.3,0.2,0.6,0.4,0.9,0.5
			c0.4,0.1,0.8,0.2,1.3,0.3c0.8,0.1,1.6,0.2,2.5,0.4c0.4,0.1,0.8,0.1,1.3,0.1c0.4,0.1,0.8,0.1,1.2,0c0.6-0.1,1.1-0.5,1.4-1
			C116.5,18.3,116.6,17.6,116.2,16.9z M115.6,18.8L115.6,18.8C115.6,18.8,115.6,18.8,115.6,18.8z"/>
	</g>
</g>
<path class="st0" d="M102.2,35c-9.7,0-17.5-7.8-17.5-17.5S92.5,0,102.2,0s17.5,7.8,17.5,17.5S111.9,35,102.2,35z M102.2,1.1
	c-9,0-16.3,7.4-16.3,16.4s7.3,16.4,16.4,16.4s16.4-7.4,16.4-16.4C118.6,8.5,111.2,1.1,102.2,1.1z"/>
<g>
	<path class="st1" d="M8.1,26.4c0.9-0.2,1.8-0.4,2.5-0.7c0.8-0.3,1.4-0.7,2-1c0.6-0.4,1-0.8,1.4-1.2s0.6-0.9,0.7-1.3
		c-0.2,0-0.3,0-0.5,0s-0.3,0-0.5,0s-0.3,0-0.5,0s-0.3,0-0.4,0c-0.7-0.1-1.3-0.2-1.9-0.5c-0.6-0.2-1-0.6-1.4-1
		c-0.2-0.3-0.4-0.6-0.5-1c-0.1-0.4-0.2-0.8-0.2-1.2c0-0.3,0-0.7,0.1-1c0.1-0.3,0.1-0.7,0.3-1c0.1-0.3,0.2-0.6,0.4-0.9
		c0.1-0.3,0.3-0.5,0.5-0.8c0.3-0.4,0.7-0.8,1.1-1c0.4-0.2,0.9-0.3,1.3-0.3c1,0,1.9,0.4,2.7,1.3c0.3,0.3,0.6,0.7,0.8,1.1
		c0.2,0.4,0.4,0.9,0.6,1.3s0.3,1,0.4,1.5s0.1,1,0.1,1.5c0,0.2,0,0.3,0,0.5s0,0.3,0,0.5c-0.1,1.1-0.4,2.1-0.9,2.9
		c-0.6,0.9-1.2,1.6-1.9,2.3c-0.8,0.6-1.6,1.2-2.6,1.6s-2,0.7-3,0.9L8.1,26.4z M12.4,15.9c-0.2,0-0.3,0.1-0.5,0.2s-0.4,0.3-0.5,0.5
		c-0.2,0.2-0.3,0.5-0.4,0.7c-0.1,0.2-0.2,0.5-0.2,0.8s0.1,0.5,0.2,0.7c0.1,0.2,0.2,0.4,0.4,0.5s0.4,0.2,0.7,0.2
		c0.2,0.1,0.5,0.1,0.7,0.1c0.1,0,0.3,0,0.4,0c0.2,0,0.3,0,0.5,0s0.3,0,0.5,0s0.3,0,0.5,0c0-0.4-0.1-0.7-0.2-1
		c-0.1-0.3-0.2-0.6-0.3-0.9s-0.3-0.5-0.5-0.7s-0.3-0.4-0.5-0.6l0,0c-0.1-0.1-0.2-0.2-0.4-0.3C12.6,16,12.6,15.9,12.4,15.9z"/>
	<path class="st1" d="M22.8,15.8c0.2,0.6,0.4,1.2,0.6,1.8c0.1,0.3,0.1,0.5,0.2,0.8s0.1,0.6,0.2,0.9s0.1,0.6,0.1,0.9s0,0.6,0,0.8
		c0,0.6-0.1,1.1-0.3,1.7c-0.2,0.5-0.4,1.1-0.7,1.6c-0.3,0.5-0.7,1-1.1,1.4c-0.4,0.5-0.9,0.9-1.4,1.3c-0.5,0.4-1,0.8-1.6,1.1
		c-0.6,0.4-1.1,0.7-1.7,0.9L16,26.8c0.5-0.2,0.9-0.5,1.3-0.7c0.4-0.3,0.9-0.6,1.3-0.9c0.4-0.3,0.8-0.6,1.1-1
		c0.3-0.3,0.6-0.7,0.9-1.1c0.2-0.4,0.4-0.7,0.6-1.1c0.1-0.4,0.2-0.8,0.2-1.2c0-0.4,0-0.7-0.1-1.1s-0.2-0.8-0.3-1.2
		c-0.1-0.4-0.2-0.8-0.4-1.1c-0.1-0.4-0.2-0.7-0.3-1L22.8,15.8z"/>
	<path class="st1" d="M30.4,22.1c-0.7,0-1.4-0.1-1.9-0.3c-0.5-0.2-1-0.5-1.4-0.8c-0.2-0.2-0.4-0.5-0.5-0.7c-0.1-0.3-0.2-0.5-0.3-0.8
		c0-0.2,0-0.5-0.1-0.7c0-0.2,0-0.4,0-0.6s0-0.5,0-1s0-1,0-1.7c0-0.4,0-0.8,0-1.3s0-0.9,0-1.4s0-0.9,0-1.4s0-0.9-0.1-1.4
		c0-0.4-0.1-0.9-0.1-1.2s-0.1-0.7-0.1-1L28.3,7c0.1,0.4,0.1,0.8,0.2,1.3s0.1,1.1,0.1,1.7s0.1,1.2,0.1,1.8c0,0.6,0,1.2,0,1.8
		c0,0.2,0,0.3,0,0.5s0,0.4,0,0.6s0,0.4,0,0.5s0,0.3,0,0.5s0,0.5,0,0.7s0,0.4,0,0.6s0,0.4,0,0.6s0,0.4,0,0.6s0,0.5,0,0.7
		s0.1,0.4,0.2,0.5c0.2,0.2,0.7,0.4,1.4,0.4h0.1c0.2,0,0.3,0,0.5,0.1c0.1,0.1,0.3,0.2,0.4,0.3c0.1,0.1,0.2,0.2,0.3,0.4
		c0.1,0.2,0.1,0.3,0.1,0.5s0,0.3-0.1,0.5s-0.2,0.3-0.3,0.4c-0.1,0.1-0.2,0.2-0.4,0.3C30.6,22.1,30.5,22.1,30.4,22.1z"/>
	<path class="st1" d="M42,19.7c0.3,0,0.6,0.1,0.9,0.4c0.2,0.2,0.4,0.5,0.4,0.9s-0.1,0.6-0.4,0.9c-0.2,0.2-0.5,0.4-0.9,0.4l0,0
		c-1,0-1.7-0.2-2.1-0.7l-0.2-0.2l-0.2,0.2c-0.5,0.5-1.1,0.7-1.8,0.7c-0.4,0-0.8-0.1-1.3-0.2c-0.4-0.1-0.8-0.3-1.3-0.5
		c-0.5-0.3-1-0.5-1.3-0.8c-0.2,0.3-0.5,0.5-0.8,0.8c-0.7,0.5-1.6,0.8-2.5,0.8c-0.3,0-0.6-0.1-0.9-0.4c-0.2-0.2-0.4-0.5-0.4-0.9
		c0-0.3,0.1-0.6,0.4-0.9c0.2-0.2,0.5-0.4,0.9-0.4c0.7,0,1.4-0.3,2-1c0.2-0.3,0.4-0.6,0.7-1c0.1-0.3,0.3-0.6,0.5-1.1
		c0.1-0.2,0.2-0.4,0.2-0.5c0.4-0.8,0.8-1.3,1.2-1.7c0.5-0.5,1.1-0.7,1.9-0.7c0.9,0,1.6,0.3,2.3,0.9c0.8,0.7,1.2,1.6,1.3,2.7v0.1l0,0
		l0,0c0,0,0,0,0,0.1l0,0l0,0c0,0,0,0,0,0.1s0,0.1,0,0.2c0,0.2,0.1,0.5,0.1,0.7C41,19.3,41.3,19.7,42,19.7L42,19.7z M38,19.8
		c0.5-0.1,0.7-0.5,0.7-1.2c0-0.6-0.1-1-0.3-1.5c-0.2-0.4-0.5-0.7-0.8-0.9c-0.4-0.2-0.7-0.3-1-0.2c-0.2,0-0.5,0.5-0.9,1.3
		c-0.1,0.2-0.2,0.4-0.3,0.7c0,0.1-0.1,0.2-0.1,0.2c0,0.1,0,0.1,0,0.1l-0.1,0.2C36.8,19.3,37.7,19.8,38,19.8C38,19.8,38,19.8,38,19.8
		z"/>
	<path class="st1" d="M40.8,20.9c0-0.2,0-0.3,0.1-0.5c0.1-0.1,0.2-0.3,0.3-0.4s0.2-0.2,0.4-0.3c0.1-0.1,0.3-0.1,0.5-0.1h0.1h0.8l0,0
		c0.2,0,0.3,0,0.4,0c0.1,0,0.2,0,0.3,0s0.1,0,0.2-0.1c0.1,0,0.1,0,0.1-0.1c0.1-0.1,0.1-0.1,0.2-0.2s0.1-0.2,0.1-0.3
		c0-0.1,0.1-0.3,0.1-0.4s0-0.3,0-0.4l0,0c0-0.2,0-0.5,0-0.8c0-0.4,0-0.8,0-1.3s0-1,0-1.6s0-1.2,0-1.8c0-1,0-2,0-2.8
		s-0.1-1.7-0.1-2.4l2.4-0.3c0.1,0.7,0.2,1.5,0.2,2.5s0.1,2,0.1,3.1c0,0.9,0,1.8,0,2.7c0,0.9,0,1.8,0,2.8c0,0.1,0,0.3,0,0.5
		s0.1,0.4,0.2,0.5c0.1,0.2,0.2,0.3,0.4,0.4s0.5,0.2,0.8,0.2c0.2,0,0.3,0,0.5,0.1s0.3,0.2,0.4,0.3c0.1,0.1,0.2,0.2,0.3,0.4
		s0.1,0.3,0.1,0.5s0,0.3-0.1,0.5s-0.2,0.3-0.3,0.4s-0.2,0.2-0.4,0.3c-0.1,0.1-0.3,0.1-0.5,0.1c-0.6,0-1.1-0.1-1.6-0.2
		s-0.8-0.4-1.1-0.7c-0.2,0.2-0.4,0.4-0.6,0.5c-0.2,0.1-0.4,0.2-0.6,0.3c-0.2,0.1-0.4,0.1-0.7,0.1c-0.2,0-0.5,0-0.7,0h-1H42
		c-0.2,0-0.3,0-0.5-0.1c-0.1-0.1-0.3-0.2-0.4-0.3c-0.1-0.1-0.2-0.2-0.3-0.4C40.8,21.2,40.8,21.1,40.8,20.9z"/>
	<path class="st1" d="M47,20.9c0-0.2,0-0.3,0.1-0.5c0.1-0.1,0.1-0.3,0.3-0.4s0.2-0.2,0.4-0.3s0.3-0.1,0.5-0.1H49c0.5,0,1,0,1.4-0.1
		c0.5,0,0.9-0.1,1.2-0.3s0.6-0.3,0.9-0.6c0.2-0.3,0.3-0.6,0.3-1c0-0.2,0-0.3,0-0.5s0-0.3-0.1-0.5c0-0.2-0.1-0.4-0.2-0.6
		c-0.1-0.2-0.1-0.5-0.2-0.8l2.3-0.7c0.1,0.3,0.1,0.6,0.2,0.8C55,15.6,55,15.8,55,16s0.1,0.5,0.1,0.7s0,0.5,0.1,0.8
		c0,0.2,0,0.4,0.1,0.7c0,0.2,0.1,0.5,0.2,0.7c0.1,0.2,0.2,0.4,0.4,0.5s0.4,0.2,0.6,0.2c0.2,0,0.3,0,0.5,0.1c0.1,0.1,0.3,0.2,0.4,0.3
		c0.1,0.1,0.2,0.2,0.3,0.4c0.1,0.2,0.1,0.3,0.1,0.5s0,0.3-0.1,0.5s-0.2,0.3-0.3,0.4C57.3,21.9,57.2,22,57,22
		c-0.1,0.1-0.3,0.1-0.5,0.1c-0.6,0-1.2-0.1-1.6-0.3c-0.4-0.2-0.8-0.5-1.1-0.8c-0.3,0.2-0.6,0.4-1,0.5s-0.8,0.3-1.2,0.3
		s-0.9,0.1-1.3,0.2c-0.5,0-0.9,0.1-1.4,0.1h-0.7c-0.2,0-0.3,0-0.5-0.1c-0.1-0.1-0.3-0.2-0.4-0.3s-0.2-0.2-0.3-0.4
		C47.2,21.2,47,21.1,47,20.9z M51.7,25.5l-1.6,1.6l-1.6-1.6l1.6-1.6L51.7,25.5z M55.3,25.5l-1.6,1.6l-1.6-1.6l1.6-1.6L55.3,25.5z"/>
	<path class="st1" d="M55.3,20.9c0-0.2,0-0.3,0.1-0.5c0.1-0.1,0.2-0.3,0.3-0.4s0.2-0.2,0.4-0.3s0.3-0.1,0.5-0.1c0.6,0,1.2,0,1.8-0.1
		s1.2-0.1,1.7-0.2s1-0.2,1.4-0.3s0.7-0.2,0.9-0.3h-1c-0.4,0-0.7,0-1.1-0.1s-0.7-0.1-1-0.3s-0.6-0.3-0.8-0.4
		c-0.3-0.2-0.5-0.4-0.7-0.6s-0.3-0.5-0.4-0.8c-0.1-0.3-0.2-0.7-0.2-1.2c0-0.3,0-0.5,0.1-0.8c0.1-0.5,0.2-1,0.4-1.4s0.4-0.8,0.7-1.1
		l0,0c0.3-0.4,0.7-0.7,1.1-0.9c0.4-0.2,0.8-0.3,1.2-0.3s0.9,0.1,1.3,0.3c0.4,0.2,0.8,0.5,1.2,0.9c0.3,0.3,0.5,0.6,0.7,1
		s0.4,0.8,0.5,1.2c0.1,0.4,0.3,0.9,0.3,1.3c0.1,0.5,0.1,0.9,0.1,1.4c0,0.1,0,0.3,0,0.4s0,0.3,0,0.4c-0.1,0.6-0.2,1.2-0.5,1.6
		s-0.6,0.8-1,1.2c-0.4,0.3-0.8,0.6-1.3,0.8c-0.5,0.2-1.1,0.4-1.6,0.5c-0.6,0.1-1.2,0.2-1.8,0.2s-1.3,0.1-1.9,0.1h-0.2
		c-0.2,0-0.3,0-0.5-0.1c-0.1-0.1-0.3-0.2-0.4-0.3c-0.1-0.1-0.2-0.2-0.3-0.4C55.3,21.2,55.3,21.1,55.3,20.9z M62.3,7.8l-1.8,1.8
		l-1.8-1.8L60.5,6L62.3,7.8z M60.8,13.3c-0.1,0-0.2,0-0.4,0.1c-0.1,0.1-0.3,0.2-0.4,0.3c-0.1,0.1-0.3,0.3-0.4,0.5
		c-0.1,0.2-0.2,0.4-0.3,0.6s-0.1,0.4-0.1,0.6s0.1,0.4,0.2,0.6c0,0.1,0.1,0.1,0.3,0.2c0.1,0.1,0.3,0.1,0.5,0.1s0.4,0.1,0.5,0.1
		c0.2,0,0.4,0,0.5,0c0.3,0,0.5,0,0.8,0s0.5,0,0.7,0c-0.1-0.2-0.1-0.5-0.2-0.9c-0.1-0.3-0.2-0.7-0.4-1s-0.3-0.6-0.6-0.8
		C61.3,13.4,61,13.3,60.8,13.3z"/>
</g>
</svg>
