<?xml version="1.0" encoding="utf-8"?>
<!-- Generator: Adobe Illustrator 22.0.1, SVG Export Plug-In . SVG Version: 6.00 Build 0)  -->
<svg version="1.1" id="Слой_1" xmlns="http://www.w3.org/2000/svg" xmlns:xlink="http://www.w3.org/1999/xlink" x="0px" y="0px"
     viewBox="0 0 50 50" style="enable-background:new 0 0 50 50;" xml:space="preserve">
<style type="text/css">
	.st0{fill:#FFFFFF;}
	.st1{fill:#A782E9;}
</style>
<g>
	<circle class="st0" cx="25" cy="25" r="25"/>
</g>
<path class="st1" d="M37,36.4c-0.5-2-3-3-3.9-3.3c-1-0.3-2.4-0.4-3.3-0.6c-0.5-0.1-1.3-0.4-1.5-0.7s-0.1-3.1-0.1-3.1
	s0.5-0.7,0.7-1.4c0.3-0.6,0.5-2.4,0.5-2.4s0.5,0,0.7-0.9c0.2-1,0.5-1.4,0.5-2.1s-0.4-0.7-0.4-0.7s0.4-1,0.4-3.2
	c0.1-2.6-2-5.1-5.6-5.1c-3.7,0-5.7,2.5-5.6,5.1c0,2.2,0.4,3.2,0.4,3.2s-0.4,0-0.4,0.7s0.3,1.1,0.5,2.1c0.1,1,0.7,1,0.7,1
	s0.3,1.7,0.5,2.4c0.3,0.6,0.7,1.4,0.7,1.4s0.1,2.8-0.1,3.1c-0.3,0.3-1,0.6-1.5,0.7c-0.9,0.2-2.3,0.3-3.3,0.6
	c-0.9,0.3-3.5,1.3-3.9,3.3c0,0.2,0.2,0.5,0.5,0.5h23C36.8,37,37.1,36.7,37,36.4z"/>
</svg>
